<?xml version="1.0" encoding="UTF-8"?><svg id="Layer_1" xmlns="http://www.w3.org/2000/svg" xmlns:xlink="http://www.w3.org/1999/xlink" viewBox="0 0 3000 700"><defs><style>.cls-1{fill:#423a30;}.cls-1,.cls-2,.cls-3{stroke-width:0px;}.cls-2{fill:url(#radial-gradient-2);}.cls-3{fill:url(#radial-gradient);}</style><radialGradient id="radial-gradient" cx="392" cy="322.67" fx="392" fy="322.67" r="165.49" gradientUnits="userSpaceOnUse"><stop offset="0" stop-color="#fff" stop-opacity="0"/><stop offset=".13" stop-color="#effafd" stop-opacity=".04"/><stop offset=".34" stop-color="#c6ecfb" stop-opacity=".13"/><stop offset=".59" stop-color="#82d7f6" stop-opacity=".29"/><stop offset=".89" stop-color="#25b9f0" stop-opacity=".51"/><stop offset="1" stop-color="#00adee" stop-opacity=".6"/></radialGradient><radialGradient id="radial-gradient-2" cx="392" cy="322.67" fx="392" fy="322.67" r="78.31" gradientUnits="userSpaceOnUse"><stop offset="0" stop-color="#fff" stop-opacity="0"/><stop offset="1" stop-color="#00adee" stop-opacity=".6"/></radialGradient></defs><path class="cls-1" d="m196.84,235.72v-46.28c0-24.79,20.17-44.96,44.96-44.96h46.28v-23.88h-46.28c-37.96,0-68.84,30.88-68.84,68.84v46.28h23.88Z"/><path class="cls-1" d="m495.92,144.48h46.28c24.79,0,44.96,20.17,44.96,44.96v46.28h23.88v-46.28c0-37.96-30.88-68.84-68.84-68.84h-46.28v23.88Z"/><path class="cls-1" d="m587.16,409.62v46.28c0,24.79-20.17,44.96-44.96,44.96h-46.28v23.88h46.28c37.96,0,68.84-30.88,68.84-68.84v-46.28h-23.88Z"/><path class="cls-1" d="m288.08,500.86h-46.28c-24.79,0-44.96-20.17-44.96-44.96v-46.28h-23.88v46.28c0,37.96,30.88,68.84,68.84,68.84h46.28v-23.88Z"/><circle class="cls-3" cx="392" cy="322.67" r="165.49"/><circle class="cls-2" cx="392" cy="322.67" r="78.31"/><path class="cls-1" d="m703.49,167.8h109.76c116.02,0,128.05,59.21,128.05,98.69,0,76.06-60.66,93.87-119.87,93.87l130.46,115.54h-71.25l-124.2-120.83v120.83h-52.95V167.8Zm113.13,153.09c62.58,0,71.25-29.85,71.25-54.4s-9.15-55.36-72.21-55.36h-59.21v109.76h60.18Z"/><path class="cls-1" d="m969.72,352.18c0-65.95,25.03-126.13,123.24-126.13,90.99,0,116.5,69.32,110.24,146.83h-180.05c2.89,42.36,24.07,66.92,68.36,66.92,40.92,0,53.92-19.74,58.73-39.48h53.92c-4.33,41.88-33.22,78.95-110.72,78.95-99.17,0-123.72-61.14-123.72-127.09Zm180.53-20.22v-.96c.48-33.7-15.4-64.99-62.1-64.99s-62.1,29.85-64.51,65.95h126.61Z"/><path class="cls-1" d="m1245.58,135.54h51.51v190.64l92.91-96.76h71.73l-125.65,116.5,135.28,129.98h-70.29l-103.98-110.72v110.72h-51.51V135.54Z"/><path class="cls-1" d="m1462.7,352.66c0-64.99,25.51-126.61,122.28-126.61s122.28,61.62,122.28,126.61-26.48,126.61-122.76,126.61-121.8-61.14-121.8-126.61Zm121.8,84.73c57.77,0,70.28-37.07,70.28-84.73s-11.55-84.73-69.8-84.73-69.8,38.51-69.8,84.73,12.52,84.73,69.32,84.73Z"/><path class="cls-1" d="m1730.85,492.75h53.92c2.41,28.4,11.07,45.73,69.8,45.73s68.36-17.33,68.36-30.33c0-21.66-19.25-26-64.51-31.77-89.06-11.07-123.72-16.85-123.72-55.84,0-22.63,14.44-33.22,41.88-39.48-27.92-14.44-37.07-37.55-37.07-65.47,0-86.17,88.58-86.17,120.83-86.17h108.32v24.55l-34.66,10.11c14.92,8.18,27.44,23.59,27.44,58.73,0,44.77-20.22,78.95-107.84,81.36-51.03,1.44-66.92,1.93-66.92,13.48s23.11,13.96,74.14,20.7c52.95,7.22,115.54,12.52,115.54,67.4,0,34.66-24.55,73.65-126.13,73.65-93.39,0-119.39-33.22-119.39-86.65Zm119.39-125.17c46.7,0,57.77-20.22,57.77-50.07,0-26.48-9.63-45.73-57.77-45.73s-58.25,18.77-58.25,47.18,10.11,48.62,58.25,48.62Z"/><path class="cls-1" d="m2004.78,229.42h27.92l11.56,34.66c8.18-16.85,34.18-38.03,90.02-38.03,80.87,0,96.76,47.18,96.76,116.98v132.87h-51.03v-137.2c0-43.81-7.7-69.8-60.18-69.8s-63.54,25.51-63.54,69.8v137.2h-51.51v-246.48Z"/><path class="cls-1" d="m2302.3,129.29c22.14,0,36.58,6.26,36.58,31.29s-14.44,30.81-36.58,30.81-38.03-6.26-38.03-30.81,14.92-31.29,38.03-31.29Zm-26,100.13h51.03v246.48h-51.03v-246.48Z"/><path class="cls-1" d="m2367.77,432.09l144.9-160.79h-144.42v-41.88h200.27v44.29l-147.31,160.31h152.12v41.88h-205.56v-43.81Z"/><path class="cls-1" d="m2592.6,352.18c0-65.95,25.03-126.13,123.24-126.13,90.99,0,116.5,69.32,110.24,146.83h-180.04c2.89,42.36,24.07,66.92,68.36,66.92,40.92,0,53.92-19.74,58.73-39.48h53.92c-4.33,41.88-33.22,78.95-110.73,78.95-99.17,0-123.72-61.14-123.72-127.09Zm180.53-20.22v-.96c.48-33.7-15.4-64.99-62.1-64.99s-62.1,29.85-64.51,65.95h126.61Z"/></svg>